<svg xmlns="http://www.w3.org/2000/svg" viewBox="0 0 512 512" role="img" aria-label="PMP2.5">
  <defs>
    <linearGradient id="bg" x1="82" y1="44" x2="430" y2="468" gradientUnits="userSpaceOnUse">
      <stop offset="0" stop-color="#1f2933"/>
      <stop offset="0.52" stop-color="#0b1218"/>
      <stop offset="1" stop-color="#05070a"/>
    </linearGradient>
    <linearGradient id="cyan" x1="120" y1="122" x2="400" y2="392" gradientUnits="userSpaceOnUse">
      <stop offset="0" stop-color="#36e8ff"/>
      <stop offset="1" stop-color="#0097ff"/>
    </linearGradient>
    <filter id="glow" x="-30%" y="-30%" width="160%" height="160%">
      <feGaussianBlur stdDeviation="14" result="blur"/>
      <feColorMatrix in="blur" type="matrix" values="0 0 0 0 0 0 0 0 0 0.82 0 0 0 0 1 0 0 0 0.42 0"/>
      <feBlend in="SourceGraphic"/>
    </filter>
  </defs>
  <rect width="512" height="512" rx="118" fill="url(#bg)"/>
  <path d="M108 327c48-54 81-75 128-75 35 0 50 13 80 13 32 0 55-14 88-52" fill="none" stroke="#2b3944" stroke-width="58" stroke-linecap="round"/>
  <path d="M108 327c48-54 81-75 128-75 35 0 50 13 80 13 32 0 55-14 88-52" fill="none" stroke="url(#cyan)" stroke-width="28" stroke-linecap="round" filter="url(#glow)"/>
  <circle cx="108" cy="327" r="31" fill="#101820" stroke="url(#cyan)" stroke-width="18"/>
  <circle cx="236" cy="252" r="27" fill="#101820" stroke="url(#cyan)" stroke-width="16"/>
  <circle cx="404" cy="213" r="31" fill="#101820" stroke="url(#cyan)" stroke-width="18"/>
  <text x="256" y="153" text-anchor="middle" font-family="Arial, Helvetica, sans-serif" font-size="66" font-weight="900" fill="#f8fafc" letter-spacing="0">PM</text>
  <text x="256" y="407" text-anchor="middle" font-family="Arial, Helvetica, sans-serif" font-size="80" font-weight="900" fill="#f8fafc" letter-spacing="0">2.5</text>
</svg>
